#!OML:ASF F:\VICON\USERDATA\INSTALL\rory3\rory3.ASF
:FULLY-SPECIFIED
:DEGREES
305
root -0.777383 22.062 6.71334 -168.475 -3.37405 -182.921
lowerback 7.80014 -1.31812 -8.6252
upperback 0.205888 -2.55537 0.587472
thorax -3.76912 -1.13181 5.74352
lowerneck -16.6325 -0.945351 -7.00414
upperneck 38.4991 5.8219 -0.275145
head 16.6014 2.6577 2.59597
rclavicle -1.38652e-014 1.86858e-014
rhumerus -36.0559 -9.23565 -74.8167
rradius 43.4251
rwrist 17.3228
rhand -20.5901 3.52535
rfingers 7.12502
rthumb 5.77006 -26.3761
lclavicle -1.38652e-014 1.86858e-014
lhumerus -26.9699 3.55717 80.9751
lradius 43.6685
lwrist -2.35051
lhand -13.3194 25.4576
lfingers 7.12502
lthumb 12.7853 55.0461
rfemur -62.9871 -4.20308 26.518
rtibia 81.331
rfoot -20.7001 5.12496
rtoes 6.55308
lfemur -5.4668 0.166513 -27.2916
ltibia 9.82684
lfoot 1.7298 -6.9366
ltoes -16.0593
306
root -0.775123 22.0466 6.66043 -168.333 -3.32745 -183.206
lowerback 7.78632 -1.28989 -8.77025
upperback 0.183789 -2.53592 0.507867
thorax -3.78576 -1.11951 5.73943
lowerneck -16.6556 -0.956448 -7.00103
upperneck 38.4602 5.77486 -0.249383
head 16.5864 2.63926 2.59608
rclavicle -5.36719e-014 -2.78299e-014
rhumerus -35.8297 -9.13603 -74.8863
rradius 43.2253
rwrist 17.4862
rhand -20.5022 3.61385
rfingers 7.12502
rthumb 5.85497 -26.2853
lclavicle -5.36719e-014 -2.78299e-014
lhumerus -27.1567 3.36815 81.1096
lradius 43.7719
lwrist -2.59093
lhand -13.3008 25.2331
lfingers 7.12502
lthumb 12.8032 54.8205
rfemur -63.033 -4.02616 26.159
rtibia 81.6093
rfoot -21.1124 4.97218
rtoes 6.25074
lfemur -5.31651 0.15558 -27.6093
ltibia 9.73048
lfoot 1.49487 -7.0147
ltoes -15.9477
307
root -0.771907 22.0316 6.60916 -168.247 -3.3495 -183.395
lowerback 7.78074 -1.26153 -8.81743
upperback 0.270182 -2.5022 0.491822
thorax -3.69607 -1.11096 5.74354
lowerneck -16.8597 -1.00377 -7.10181
upperneck 38.435 5.69884 -0.203728
head 16.6224 2.58454 2.62186
rclavicle -1.36416e-014 8.54774e-015
rhumerus -35.4915 -9.16328 -74.8537
rradius 43.04
rwrist 17.8303
rhand -20.5697 3.94186
rfingers 7.12502
rthumb 5.7898 -25.959
lclavicle -1.36416e-014 8.54774e-015
lhumerus -27.1109 3.11954 81.3525
lradius 43.7434
lwrist -2.83218
lhand -13.4369 24.8913
lfingers 7.12502
lthumb 12.672 54.4868
rfemur -63.0507 -3.88604 25.9102
rtibia 81.9177
rfoot -21.492 4.86278
rtoes 5.72463
lfemur -5.00569 0.105074 -27.8003
ltibia 9.34451
lfoot 1.4894 -7.05357
ltoes -15.8186
308
root -0.768248 22.0124 6.55879 -168.098 -3.36441 -183.486
lowerback 7.80262 -1.2502 -8.76429
upperback 0.27898 -2.48311 0.510129
thorax -3.70346 -1.10208 5.73181
lowerneck -17.012 -1.01191 -7.1831
upperneck 38.4217 5.67984 -0.144247
head 16.6488 2.56264 2.66047
rclavicle 7.47927e-015 1.25234e-014
rhumerus -35.2196 -9.08095 -74.8468
rradius 42.8973
rwrist 18.0113
rhand -20.5172 4.06459
rfingers 7.12502
rthumb 5.84046 -25.8349
lclavicle 7.47927e-015 1.25234e-014
lhumerus -27.2251 2.91953 81.5851
lradius 43.8107
lwrist -3.01582
lhand -13.4755 24.9097
lfingers 7.12502
lthumb 12.6348 54.5076
rfemur -63.1631 -3.69343 25.7564
rtibia 82.2245
rfoot -21.7586 4.82642
rtoes 5.8358
lfemur -4.7549 0.0731046 -27.884
ltibia 8.8517
lfoot 1.55556 -7.11739
ltoes -15.6789
309
root -0.765138 21.9933 6.50892 -167.89 -3.28589 -183.539
lowerback 7.86487 -1.21931 -8.68358
upperback 0.174226 -2.44271 0.501039
thorax -3.85883 -1.07103 5.67799
lowerneck -17.0268 -0.983432 -7.18372
upperneck 38.4637 5.71857 -0.0820743
head 16.669 2.58873 2.69808
rclavicle -2.89729e-014 -1.83876e-014
rhumerus -35.0619 -9.05125 -74.8964
rradius 42.7487
rwrist 18.2421
rhand -20.3335 3.86981
rfingers 7.12502
rthumb 6.01784 -26.0247
lclavicle -2.89729e-014 -1.83876e-014
lhumerus -27.5554 2.79787 81.7116
lradius 43.9202
lwrist -3.24382
lhand -13.4656 24.7519
lfingers 7.12502
lthumb 12.6443 54.3492
rfemur -63.3245 -3.43319 25.6407
rtibia 82.4936
rfoot -21.9415 4.85717
rtoes 6.22929
lfemur -4.58262 0.132847 -27.9345
ltibia 8.33197
lfoot 1.66078 -7.25156
ltoes -15.2247
310
root -0.76255 21.9871 6.45978 -167.735 -3.22595 -183.543
lowerback 7.94477 -1.18621 -8.58568
upperback 0.142321 -2.39426 0.554217
thorax -3.94646 -1.04205 5.6783
lowerneck -17.0893 -0.98245 -7.266
upperneck 38.43 5.7349 -0.0729724
head 16.6641 2.58008 2.71843
rclavicle 1.62879e-014 2.32578e-014
rhumerus -34.788 -8.90431 -74.9098
rradius 42.6283
rwrist 18.4046
rhand -20.2907 3.72275
rfingers 7.12502
rthumb 6.05913 -26.1706
lclavicle 1.62879e-014 2.32578e-014
lhumerus -27.7893 2.75452 81.9236
lradius 44.009
lwrist -3.49072
lhand -13.5179 24.5327
lfingers 7.12502
lthumb 12.5939 54.133
rfemur -63.3599 -3.1777 25.5503
rtibia 82.6777
rfoot -22.0537 4.86507
rtoes 6.70392
lfemur -4.31216 0.192142 -27.9263
ltibia 7.72813
lfoot 1.86846 -7.33137
ltoes -14.5268
311
root -0.760772 21.9946 6.40937 -167.601 -3.23114 -183.588
lowerback 8.005 -1.1744 -8.53042
upperback 0.157455 -2.37338 0.641505
thorax -3.96593 -1.03096 5.73948
lowerneck -17.1896 -0.997518 -7.30759
upperneck 38.3931 5.75655 -0.16859
head 16.6743 2.5625 2.68753
rclavicle -1.66979e-014 1.77167e-014
rhumerus -34.5037 -8.78093 -74.828
rradius 42.5641
rwrist 18.5859
rhand -20.3213 3.81005
rfingers 7.12502
rthumb 6.02961 -26.0841
lclavicle -1.66979e-014 1.77167e-014
lhumerus -27.8822 2.82675 82.1868
lradius 43.9553
lwrist -3.67035
lhand -13.6947 24.3399
lfingers 7.12502
lthumb 12.4235 53.9507
rfemur -63.3594 -2.99451 25.403
rtibia 82.7988
rfoot -22.1659 4.8107
rtoes 6.82905
lfemur -4.02685 0.182026 -27.9497
ltibia 7.17729
lfoot 2.15244 -7.38022
ltoes -14.2512
